# xmcd CD database file
#
# Track frame offsets:
#	150
#	12508
#	25421
#	36634
#	49523
#	62255
#	75418
#	89019
#	102206
#	112759
#	123716
#	136677
#	147945
#	160157
#	171286
#	178958
#	191423
#	203543
#	213598
#	227797
#
# Disc length: 3204 seconds
#
# Revision: 0
# Processed by: cddbd v1.4PL0 Copyright (c) Steve Scherf et al.
# Submitted via: CDex 1.50
#
DISCID=120c8214
DTITLE=Elmore James - The Sky Is Crying
DYEAR=2000
DGENRE=Blues
TTITLE0=The Sky Is Crying
TTITLE1=Dust My Broom
TTITLE2=Shake Your Moneymaker
TTITLE3=Baby Please Set A Date
TTITLE4=Anna Lee
TTITLE5=Stranger Blues
TTITLE6=My Bleeding Heart
TTITLE7=Standing At The Crossroads
TTITLE8=One Way Out
TTITLE9=Person To Person
TTITLE10=My Kind Of Woman
TTITLE11=So Unkind
TTITLE12=Got To Move
TTITLE13=Look To Yonder Wall
TTITLE14=Mean Mistreatin' Mama Take I
TTITLE15=Mean Mistreatin' Mama Take II
TTITLE16=Mean Mistreatin' Mama Take III
TTITLE17=Sunnyland Train
TTITLE18=My Baby's Gone
TTITLE19=Find My Kinda Woman
EXTD=YEAR: 2000
EXTT0=
EXTT1=
EXTT2=
EXTT3=
EXTT4=
EXTT5=
EXTT6=
EXTT7=
EXTT8=
EXTT9=
EXTT10=
EXTT11=
EXTT12=
EXTT13=
EXTT14=
EXTT15=
EXTT16=
EXTT17=
EXTT18=
EXTT19=
PLAYORDER=
